<svg width="804" height="840" viewBox="0 0 804 840" fill="none" xmlns="http://www.w3.org/2000/svg">
<g opacity="0.7" clip-path="url(#clip0_71_8)">
<path d="M299.613 1.18115C298.169 1.90302 295.609 3.87177 293.969 5.70923C284.977 15.3561 280.973 32.9436 273.294 96.7968C271.26 113.794 269.356 127.837 269.16 128.1C268.897 128.428 261.48 125.475 252.686 121.669C184.1 92.0718 170.448 86.6249 139.207 76.3874C130.084 73.3687 116.17 70.2186 111.969 70.2186C108.819 70.2186 104.881 71.8593 103.765 73.6311C102.387 75.7968 102.715 83.0155 104.356 88.9874C110.328 110.315 133.366 161.044 150.496 190.641C158.24 203.962 171.301 222.272 171.301 219.778C171.301 219.384 168.545 214.462 165.132 208.819C146.558 177.712 137.435 156.647 131.659 131.184C127.065 110.841 126.146 97.3218 129.099 93.3186C130.872 90.8905 134.744 90.628 140.06 92.5967C151.021 96.5342 194.404 117.141 218.229 129.74C242.578 142.603 264.5 156.122 264.5 158.287C264.5 158.878 263.515 163.341 262.268 168.131C257.083 188.278 250.192 198.975 233.98 212.297C225.054 219.581 219.804 223.322 189.285 243.928C139.929 277.266 122.996 290.062 104.422 308.109C86.5038 325.565 73.6398 343.809 66.0264 362.709C57.9536 382.922 55.6565 397.031 54.4751 434.437C53.7531 456.487 52.7686 466.922 50.209 478.8C44.4333 505.378 31.6349 537.141 17.327 560.109C5.64439 578.878 4.33174 581.241 2.42839 586.031C-1.64083 596.334 -0.525077 605.587 6.56325 619.894C13.389 633.872 24.9404 649.753 37.0168 661.894C48.3056 673.181 56.2472 678.3 73.3773 685.387C83.2878 689.456 86.7007 691.687 98.1208 701.531C116.826 717.609 131.397 724.828 152.924 728.897C161.916 730.603 192.829 730.603 205.43 728.897C228.073 725.812 251.373 720.497 270.407 713.934C276.707 711.769 282.352 709.866 282.942 709.669C285.174 708.881 314.315 749.897 347.722 800.691C369.906 834.422 374.303 840.722 375.156 839.869C375.878 839.147 372.662 831.469 365.836 817.687C346.803 779.166 322.519 740.184 298.432 709.603L294.691 704.878L304.667 699.759C317.4 693.197 325.079 688.406 335.317 680.728C339.78 677.381 343.587 674.625 343.915 674.625C344.637 674.625 365.836 690.309 378.044 699.891C411.123 725.878 426.087 739.2 506.618 814.275C531.362 837.375 538.319 842.625 532.15 833.569C523.355 820.641 494.017 787.959 466.911 760.922C431.469 725.484 402.919 701.597 363.474 674.231C358.092 670.556 353.366 667.406 352.972 667.209C352.447 667.078 354.613 664.387 358.092 660.712C364.13 654.478 368.068 649.359 367.346 648.637C366.624 647.916 364.196 649.162 354.416 655.594L344.44 662.091L336.827 657.431C312.674 642.862 275.46 623.503 268.109 621.731L266.14 621.272L267.453 622.716C269.356 624.881 274.804 628.622 293.706 640.828C315.693 654.937 334.727 667.603 334.727 668.128C334.727 668.85 311.689 681.581 298.825 688.012C291.868 691.491 286.093 694.312 285.961 694.312C285.83 694.312 281.367 689.587 275.985 683.747C262.662 669.244 244.022 652.312 241.463 652.312C239.297 652.312 241.725 655.791 261.218 680.466C268.963 690.309 275.263 698.578 275.198 698.775C275.001 699.431 256.23 706.65 245.794 709.997C214.225 720.234 186.397 721.875 158.503 715.05C123.652 706.519 71.999 679.481 51.1935 658.875C43.7113 651.459 41.6767 646.275 43.3175 638.531C44.302 633.806 49.5526 622.781 57.2317 609.328C72.5241 582.422 75.5432 574.219 72.4584 568.247C70.1613 563.719 64.5825 562.931 48.6994 564.769C37.8044 566.016 32.3569 565.819 31.0442 563.981C28.4846 560.634 31.5037 553.612 44.8271 532.087C61.5634 504.919 68.9799 490.612 73.3773 477.094C76.5277 467.25 77.1184 463.772 77.1184 452.812C77.1184 441.656 76.5933 438.112 72.7866 421.969C69.4393 407.662 68.2579 400.509 68.2579 394.8C68.2579 374.456 79.7437 352.997 107.638 320.841C116.301 310.931 137.369 290.062 147.87 281.137C182.853 251.212 224.136 228.703 259.971 219.909C271.916 217.022 282.024 215.381 301.582 213.281C330.329 210.197 341.29 208.294 353.104 204.225C366.624 199.565 372.4 196.416 379.16 190.116C384.673 184.997 388.086 179.747 390.317 172.987C391.893 168.131 392.089 166.753 392.089 157.172C392.155 144.834 390.908 137.681 386.117 123.375C380.801 107.362 373.45 93.3186 358.223 70.4155C347.919 54.7968 346.212 51.9749 346.869 51.3186C348.509 49.678 368.987 63.9186 448.468 122.259C562.997 206.194 600.867 236.381 639.853 274.641C668.075 302.4 687.961 325.434 715.855 362.906C727.21 378.197 734.561 388.434 765.605 432.469C786.804 462.591 799.799 479.784 802.753 481.556C804.131 482.475 804.197 482.409 803.737 480.244C803.147 477.028 793.367 457.603 785.098 443.297C732.001 350.897 655.08 258.366 572.645 187.753C533.068 153.825 503.534 131.906 399.047 58.9312C381.194 46.3967 358.879 30.7124 349.494 24.0186C323.7 5.578 314.84 0.721743 306.504 0.196779C303.288 -0.000120104 301.582 0.262392 299.613 1.18115Z" fill="#323232" fill-opacity="0.3"/>
<path d="M172.286 393.094C162.638 393.947 148.395 396.244 141.438 398.016C131.528 400.509 127.393 403.331 128.312 407.006C128.574 407.925 130.74 411.141 133.169 414.159C138.813 421.247 142.357 426.366 148.395 436.012C154.302 445.659 159.028 450.844 163.885 453.206C174.255 458.259 191.713 454.059 209.434 442.181C220.066 435.094 226.104 428.203 232.602 415.603C237 407.269 239.822 404.775 248.879 401.362L252.751 399.919L250.257 399.131C246.713 398.081 229.583 395.259 219.541 394.078C209.303 392.831 181.474 392.306 172.286 393.094Z" fill="#323232" fill-opacity="0.3"/>
<path d="M270.735 594.234C272.507 595.744 279.923 599.156 291.737 603.881C320.747 615.431 346.344 628.228 371.612 643.519C391.236 655.462 405.282 665.044 449.584 696.609C477.871 716.756 482.334 719.841 485.55 721.481C489.62 723.581 487.782 720.956 479.315 712.556C468.945 702.384 464.614 698.512 451.028 687.225C406.988 650.541 371.35 627.966 331.117 611.297C311.427 603.094 283.008 594.366 273.426 593.512C269.619 593.184 269.488 593.184 270.735 594.234Z" fill="#323232" fill-opacity="0.3"/>
</g>
<defs>
<clipPath id="clip0_71_8">
<rect width="804" height="840" fill="white"/>
</clipPath>
</defs>
</svg>
