<svg width="60" height="60" viewBox="0 0 60 60" fill="none" xmlns="http://www.w3.org/2000/svg">
<path d="M21.6328 1.51875C20.85 1.70156 20.2594 2.04375 19.5891 2.71406C19.0453 3.25312 18.6563 3.80156 18.2813 4.54688C16.0453 9.01875 16.8 16.3969 19.9359 20.625C20.3625 21.2016 21.1031 21.9609 21.6094 22.3406C23.2688 23.5922 25.1344 23.6578 26.6297 22.5188C28.1625 21.3469 29.2125 19.0875 29.6109 16.1016C29.7094 15.3328 29.7281 12.9516 29.6344 12.1641C29.25 8.87344 28.2703 6.15 26.7375 4.09219C26.3531 3.58125 25.5984 2.8125 25.125 2.45156C24.6844 2.11875 23.85 1.6875 23.4141 1.57031C23.025 1.4625 21.9984 1.43438 21.6328 1.51875Z" fill="#323232"/>
<path d="M40.0594 2.46563C38.6016 2.75157 37.0781 3.86719 35.8172 5.56407C34.1953 7.74375 33.0984 10.6266 32.6859 13.8047C32.5547 14.8172 32.5688 17.0766 32.7094 17.9953C33.0375 20.0906 33.7359 21.6938 34.7813 22.7344C35.6766 23.6344 36.8016 24.0516 37.9453 23.9156C40.6688 23.5781 43.3547 20.6063 44.7891 16.3406C45.9797 12.8016 46.1063 9.075 45.1313 6.23438C44.1797 3.46407 42.2485 2.02969 40.0594 2.46563Z" fill="#323232"/>
<path d="M9.82032 17.7656C7.90313 18.0703 6.45938 19.6172 5.80782 22.0734C5.43751 23.4844 5.38594 25.4297 5.67657 27.1406C6.34688 31.125 8.65313 34.7859 11.3813 36.2016C12.7781 36.9234 14.1703 37.05 15.3656 36.5531C17.1281 35.8219 18.2859 33.9281 18.6656 31.1484C18.7406 30.5906 18.7406 28.9359 18.6609 28.2891C18.0516 23.1234 14.8688 18.5906 11.3297 17.8359C10.9125 17.7469 10.1719 17.7141 9.82032 17.7656Z" fill="#323232"/>
<path d="M49.5469 21.5625C47.8594 21.9234 46.2047 23.1094 44.8313 24.9469C43.3406 26.9438 42.3375 29.55 42.0469 32.175C41.9719 32.8594 41.9859 34.3313 42.0703 34.9922C42.6422 39.4359 45.6609 41.5688 49.0781 39.9563C50.9109 39.0891 52.5703 37.3031 53.7563 34.9266C56.0063 30.4266 55.8609 25.1531 53.4141 22.7109C52.3828 21.6797 50.9625 21.2578 49.5469 21.5625Z" fill="#323232"/>
<path d="M29.1797 29.9016C26.0766 30.4547 22.1625 33.7125 18.6938 38.625C15.9797 42.4734 14.0672 46.6172 13.4953 49.8984C13.3594 50.6859 13.3453 52.0922 13.4672 52.6313C13.6594 53.4703 13.9828 54.0234 14.6109 54.6094C15.6609 55.5797 16.9219 56.1516 18.5016 56.3719C19.3219 56.4844 20.9813 56.4422 22.0359 56.2828C23.4469 56.0625 24.6375 55.7766 27.3047 55.0078C29.8828 54.2672 30.6047 54.1125 31.3172 54.1594C32.2219 54.2203 32.9016 54.4406 34.8516 55.2984C36.2484 55.9125 37.0266 56.2031 37.6922 56.3672C40.1766 56.9672 42.2672 56.1844 44.4188 53.85C45.0609 53.1563 45.2578 52.8188 45.4594 52.0828C45.5719 51.6609 45.5813 51.5672 45.5813 50.5781C45.5813 49.6828 45.5672 49.4297 45.4734 48.9141C44.9203 45.7875 43.275 42.0094 40.8984 38.4141C38.0719 34.1391 34.7531 31.0594 31.9828 30.1453C30.975 29.8125 30.1172 29.7375 29.1797 29.9016Z" fill="#323232"/>
</svg>
