<svg width="95" height="95" viewBox="0 0 95 95" fill="none" xmlns="http://www.w3.org/2000/svg">
<circle cx="47.5" cy="47.5" r="47.5" fill="#D9D9D9"/>
<circle cx="47.5" cy="47.5" r="46.5" stroke="#323232" stroke-opacity="0.8" stroke-width="2"/>
<path d="M39.6328 19.5187C38.85 19.7016 38.2594 20.0437 37.589 20.7141C37.0453 21.2531 36.6562 21.8016 36.2812 22.5469C34.0453 27.0187 34.8 34.3969 37.9359 38.625C38.3625 39.2016 39.1031 39.9609 39.6094 40.3406C41.2687 41.5922 43.1344 41.6578 44.6297 40.5187C46.1625 39.3469 47.2125 37.0875 47.6109 34.1016C47.7094 33.3328 47.7281 30.9516 47.6344 30.1641C47.25 26.8734 46.2703 24.15 44.7375 22.0922C44.3531 21.5812 43.5984 20.8125 43.125 20.4516C42.6844 20.1187 41.85 19.6875 41.414 19.5703C41.025 19.4625 39.9984 19.4344 39.6328 19.5187Z" fill="#323232"/>
<path d="M58.0594 20.4656C56.6016 20.7515 55.0781 21.8672 53.8172 23.564C52.1953 25.7437 51.0984 28.6265 50.6859 31.8047C50.5547 32.8172 50.5687 35.0765 50.7094 35.9953C51.0375 38.0906 51.7359 39.6937 52.7812 40.7344C53.6766 41.6344 54.8016 42.0515 55.9453 41.9156C58.6687 41.5781 61.3547 38.6062 62.7891 34.3406C63.9797 30.8015 64.1062 27.075 63.1312 24.2344C62.1797 21.464 60.2484 20.0297 58.0594 20.4656Z" fill="#4B629C"/>
<path d="M27.8202 35.7656C25.903 36.0703 24.4593 37.6172 23.8077 40.0734C23.4374 41.4844 23.3858 43.4297 23.6765 45.1406C24.3468 49.125 26.653 52.7859 29.3811 54.2016C30.778 54.9234 32.1702 55.05 33.3655 54.5531C35.128 53.8219 36.2858 51.9281 36.6655 49.1484C36.7405 48.5906 36.7405 46.9359 36.6608 46.2891C36.0515 41.1234 32.8686 36.5906 29.3296 35.8359C28.9124 35.7469 28.1718 35.7141 27.8202 35.7656Z" fill="#323232"/>
<path d="M67.5467 39.5625C65.8592 39.9234 64.2045 41.1094 62.831 42.9469C61.3404 44.9437 60.3373 47.55 60.0467 50.175C59.9717 50.8594 59.9857 52.3312 60.0701 52.9922C60.642 57.4359 63.6607 59.5687 67.0779 57.9562C68.9107 57.089 70.5701 55.3031 71.756 52.9265C74.006 48.4265 73.8607 43.1531 71.4139 40.7109C70.3826 39.6797 68.9623 39.2578 67.5467 39.5625Z" fill="#323232"/>
<path d="M47.1796 47.9015C44.0764 48.4547 40.1624 51.7125 36.6936 56.625C33.9796 60.4734 32.0671 64.6172 31.4952 67.8984C31.3592 68.6859 31.3452 70.0922 31.4671 70.6312C31.6592 71.4703 31.9827 72.0234 32.6108 72.6094C33.6608 73.5797 34.9217 74.1515 36.5014 74.3719C37.3217 74.4844 38.9811 74.4422 40.0358 74.2828C41.4467 74.0625 42.6374 73.7765 45.3046 73.0078C47.8827 72.2672 48.6046 72.1125 49.3171 72.1594C50.2217 72.2203 50.9014 72.4406 52.8514 73.2984C54.2483 73.9125 55.0264 74.2031 55.6921 74.3672C58.1764 74.9672 60.2671 74.1844 62.4186 71.85C63.0608 71.1562 63.2577 70.8187 63.4592 70.0828C63.5717 69.6609 63.5811 69.5672 63.5811 68.5781C63.5811 67.6828 63.5671 67.4297 63.4733 66.914C62.9202 63.7875 61.2749 60.0094 58.8983 56.414C56.0717 52.139 52.753 49.0593 49.9827 48.1453C48.9749 47.8125 48.1171 47.7375 47.1796 47.9015Z" fill="#323232"/>
</svg>
